{"title":"The 5th Wave(2016)MPEG-4[DaScubaDude]","uid":15261950,"size":1214222178,"categoryP":"video","categoryS":"movies","magnet":"?xt=urn:btih:421469c0c2f472f8832d346bdd044fdb09315e8c&amp;dn=The+5th+Wave%282016%29MPEG-4%5BDaScubaDude%5D&amp;tr=udp%3A%2F%2Ftracker.leechers-paradise.org%3A6969&amp;tr=udp%3A%2F%2Fzer0day.ch%3A1337&amp;tr=udp%3A%2F%2Fopen.demonii.com%3A1337&amp;tr=udp%3A%2F%2Ftracker.coppersurfer.tk%3A6969&amp;tr=udp%3A%2F%2Fexodus.desync.com%3A6969","seeders":1,"leechers":0,"uploader":"dascuba","files":1,"time":1468186103,"description":"The 5th Wave (2016)\r\nPG-13 | 1h 52min | Action, Adventure, Sci-Fi | 22 January 2016 (USA)\r\nFour waves of increasingly deadly alien attacks have left most of Earth decimated. Cassie is on the run, desperately trying to save her younger brother.\r\nDirector: J Blakeson\r\nWriters: Susannah Grant (screenplay), Akiva Goldsman (screenplay) |\r\nStars: Chloë Grace Moretz, Matthew Zuk, Gabriela Lopez | \r\n\r\nGeneral\r\nComplete name                            : The5thWaveTHE_5TH_WAVE_Title1.mp4\r\nFormat                                   : MPEG-4\r\nFormat profile                           : Base Media\r\nCodec ID                                 : isom (isom/iso2/avc1/mp41)\r\nFile size                                : 1.13 GiB\r\nDuration                                 : 1h 52mn\r\nOverall bit rate                         : 1 442 Kbps\r\nMovie name                               : THE_5TH_WAVE\r\nGenre                                    : Science_Fiction\r\nWriting application                      : Lavf54.6.100\r\n\r\nVideo\r\nID                                       : 1\r\nFormat                                   : AVC\r\nFormat/Info                              : Advanced Video Codec\r\nFormat profile                           :   \r\nFormat settings, CABAC                   : No\r\nFormat settings, ReFrames                : 6 frames\r\nFormat settings, GOP                     : M=1, N=60\r\nCodec ID                                 : avc1\r\nCodec ID/Info                            : Advanced Video Coding\r\nDuration                                 : 1h 52mn\r\nBit rate                                 : 1 180 Kbps\r\nWidth                                    : 720 pixels\r\nHeight                                   : 404 pixels\r\nDisplay aspect ratio                     : 16:9\r\nFrame rate mode                          : Constant\r\nFrame rate                               : 29.970 (30000/1001) fps\r\nColor space                              : YUV\r\nChroma subsampling                       : 4:2:0\r\nBit depth                                : 8 bits\r\nScan type                                : Progressive\r\nBits/(Pixel*Frame)                       : 0.135\r\nStream size                              : 948 MiB (82%)\r\n\r\nAudio\r\nID                                       : 2\r\nFormat                                   : AAC\r\nFormat/Info                              : Advanced Audio Codec\r\nFormat profile                           : LC\r\nCodec ID                                 : 40\r\nDuration                                 : 1h 52mn\r\nBit rate mode                            : Constant\r\nBit rate                                 : 255 Kbps\r\nChannel(s)                               : 2 channels\r\nChannel(s)_Original                      : 6 channels\r\nChannel positions                        : Front: L C R, Side: L R, LFE\r\nSampling rate                            : 44.1 KHz\r\nFrame rate                               : 43.066 fps (1024 spf)\r\nCompression mode                         : Lossy\r\nStream size                              : 204 MiB (18%)\r\nDefault                                  : Yes\r\nAlternate group                          : 1","torrent":{"xt":"urn:btih:421469c0c2f472f8832d346bdd044fdb09315e8c","amp;dn":"The+5th+Wave%282016%29MPEG-4%5BDaScubaDude%5D","amp;tr":["udp%3A%2F%2Ftracker.leechers-paradise.org%3A6969","udp%3A%2F%2Fzer0day.ch%3A1337","udp%3A%2F%2Fopen.demonii.com%3A1337","udp%3A%2F%2Ftracker.coppersurfer.tk%3A6969","udp%3A%2F%2Fexodus.desync.com%3A6969"],"infoHash":"421469c0c2f472f8832d346bdd044fdb09315e8c","infoHashBuffer":{"type":"Buffer","data":[66,20,105,192,194,244,114,248,131,45,52,107,221,4,79,219,9,49,94,140]},"announce":[],"urlList":[]}}